<?xml version="1.0" encoding="utf-8"?>
<!-- Generator: Adobe Illustrator 24.1.2, SVG Export Plug-In . SVG Version: 6.00 Build 0)  -->
<svg version="1.1" id="Ebene_1" xmlns="http://www.w3.org/2000/svg" xmlns:xlink="http://www.w3.org/1999/xlink" x="0px" y="0px"
	 viewBox="0 0 369.9 374.2" style="enable-background:new 0 0 369.9 374.2;" xml:space="preserve">
<style type="text/css">
	.st0{fill:#FFFFFF;stroke:#000000;stroke-width:0.9481;}
	.st1{fill:#D50D29;stroke:#000000;stroke-width:0.9481;}
	.st2{fill:#D50D29;stroke:#000000;stroke-width:0.625;}
	.st3{stroke:#000000;stroke-width:0.2134;}
	.st4{fill:#FFFFFF;}
	.st5{fill:#FFFFFF;stroke:#000000;stroke-width:0.2134;}
	.st6{fill:#D50D29;stroke:#000000;stroke-width:0.2134;}
</style>
<g>
	<path d="M71.9,239.3v-13.8c0-3.6-0.6-4-5.3-4.4v-1.8c3.9,0.3,5.8,0.5,8.4,0.5c2.6,0,4.5-0.1,8.3-0.5v1.8c-4.7,0.3-5.3,0.8-5.3,4.4
		V257c0,3.6,0.6,4.1,5.3,4.4v1.8c-3.8-0.3-5.6-0.5-8.3-0.5c-2.6,0-4.5,0.1-8.4,0.5v-1.8c4.7-0.3,5.3-0.8,5.3-4.4v-15.6H54.5V257
		c0,3.6,0.6,4.1,5.3,4.4v1.8c-3.9-0.3-5.8-0.5-8.5-0.5c-2.6,0-4.4,0.1-8.2,0.5v-1.8c4.7-0.3,5.3-0.8,5.3-4.4v-31.5
		c0-3.6-0.6-4-5.3-4.4v-1.8c3.8,0.3,5.6,0.5,8.2,0.5c2.6,0,4.6-0.1,8.5-0.5v1.8c-4.7,0.3-5.3,0.8-5.3,4.4v13.8H71.9"/>
	<path d="M101.2,245.6c-7.8,1.5-11,4.1-11,9.1c0,3.7,1.9,6,5.1,6c2.6,0,4.5-1.4,5.3-3.9c0.4-1.2,0.6-2.9,0.6-5.3V245.6 M111.1,263
		c-1.8,0.3-2.7,0.5-3.9,0.5c-3.3,0-4.9-1.6-5.3-5.6c-2.2,4.2-4.6,5.7-8.7,5.7c-5.3,0-9-3.5-9-8.4c0-4,2.4-6.8,7.2-8.9
		c2.9-1.2,5.8-2,9.6-2.4v-4c0-2.4-0.3-3.6-1-4.6c-0.8-1.1-2.4-1.8-4.2-1.8c-2.9,0-5.1,1.5-5.1,3.5l0.1,0.9l0.1,1c0,2-1,3-2.8,3
		c-1.5,0-2.4-0.8-2.4-2.4c0-4.2,4.9-7.8,10.8-7.8c3.9,0,7.2,1.5,8.9,4c1.1,1.6,1.5,3.6,1.5,7.4V256c0,4.2,0.6,5.5,2.4,5.5
		c0.5,0,0.8-0.1,1.7-0.3V263"/>
	<path d="M113.5,233.1c3.8-0.5,6.7-1.1,9-1.9c0.4,1.2,0.6,3.2,0.8,5.6c2.4-3.6,5-5.1,8.8-5.1c3.5,0,6.4,1.6,8,4.2
		c1,1.6,1.5,3.8,1.5,6.8v15.5c0,2.9,0.6,3.4,4.6,3.6v1.4c-3.2-0.3-4.9-0.4-7.2-0.4c-2.5,0-4.1,0.1-7.2,0.4v-1.4c3.1-0.1,4-0.8,4-3.5
		v-16c0-2.8-0.3-4.2-1-5.3c-1-1.4-2.6-2.2-4.5-2.2c-2.2,0-4.1,1-5.3,2.7c-0.8,1.2-1.1,2.5-1.1,5.1v15.8c0,2.7,0.8,3.4,3.9,3.5v1.4
		c-3.1-0.3-4.7-0.4-7.1-0.4c-2.4,0-4,0.1-7.2,0.4v-1.4c4-0.2,4.6-0.7,4.6-3.6v-19.6c-0.1-2.8-0.1-3-0.5-3.6
		c-0.5-0.5-1.4-0.6-4.1-0.6V233.1"/>
	<path d="M149.6,252.8h1.5c0.3,2,0.7,3.1,1.4,4.5c1.2,2.6,3.9,4.2,6.8,4.2c3.6,0,6.4-2.5,6.4-5.7c0-2-0.9-3.2-3.6-4.7
		c0,0-2.1-1-6.1-2.9c-4.6-2.3-6.1-4.2-6.1-7.9c0-5.1,4.1-8.7,9.9-8.7c2.5,0,4.5,0.7,6.7,2.2l1.2-2.9h1.2v10.3h-1.5
		c-0.6-5.3-2.8-7.7-6.7-7.7c-3.3,0-6,2.3-6,5.1c0,2,0.9,3.1,3.7,4.6c0.8,0.4,1.2,0.6,5.7,2.7c4.8,2.2,6.6,4.4,6.6,8.2
		c0,5.5-4.4,9.4-10.5,9.4c-3,0-5.4-0.8-7.8-2.8l-1.6,3.1h-1.2V252.8"/>
	<path d="M194.4,244.7c-0.3-7.9-2.3-11.6-6.2-11.6c-4,0-6.2,3.8-6.7,11.6H194.4 M200.2,253.1c-0.8,6.7-5.1,10.7-11.5,10.7
		c-8.3,0-13.3-6-13.3-16c0-10,5-16.3,12.8-16.3c7.7,0,11.8,5.4,12,15.6h-18.9c0.1,10.2,2.5,14.5,8.3,14.5c4.4,0,7.2-3,8.1-8.4H200.2
		"/>
	<path d="M205.2,252.8h1.5c0.3,2,0.7,3.1,1.4,4.5c1.2,2.6,3.9,4.2,6.8,4.2c3.6,0,6.4-2.5,6.4-5.7c0-2-0.9-3.2-3.6-4.7
		c0,0-2.1-1-6.1-2.9c-4.6-2.3-6.1-4.2-6.1-7.9c0-5.1,4.1-8.7,9.9-8.7c2.5,0,4.5,0.7,6.7,2.2l1.2-2.9h1.2v10.3h-1.5
		c-0.6-5.3-2.8-7.7-6.7-7.7c-3.3,0-6,2.3-6,5.1c0,2,0.9,3.1,3.7,4.6c0.8,0.4,1.2,0.6,5.7,2.7c4.8,2.2,6.6,4.4,6.6,8.2
		c0,5.5-4.4,9.4-10.5,9.4c-3,0-5.4-0.8-7.8-2.8l-1.6,3.1h-1.2V252.8"/>
	<path d="M247.4,261.5c-2.9,1.7-4.2,2.1-6.5,2.1c-3.2,0-5.5-1.3-6.6-3.7c-0.6-1.3-0.8-3.1-0.8-5.8v-1l0.3-18.4h-4v-2.1
		c4.2-0.1,6.9-3.4,8.1-9.7h1.9l-0.1,9.4h7.2v2.4h-7.3v19c0,3.1,0.1,4.4,0.6,5.3c0.6,1.3,1.6,1.9,3.1,1.9c1.3,0,1.8-0.2,4.2-1.5
		V261.5"/>
	<path d="M266.5,245.6c-7.8,1.5-11,4.1-11,9.1c0,3.7,1.9,6,5.1,6c2.6,0,4.5-1.4,5.3-3.9c0.4-1.2,0.6-2.9,0.6-5.3V245.6 M276.4,263
		c-1.8,0.3-2.7,0.5-3.9,0.5c-3.3,0-4.9-1.6-5.3-5.6c-2.2,4.2-4.6,5.7-8.7,5.7c-5.3,0-9-3.5-9-8.4c0-4,2.4-6.8,7.2-8.9
		c2.9-1.2,5.8-2,9.6-2.4v-4c0-2.4-0.3-3.6-1-4.6c-0.8-1.1-2.4-1.8-4.2-1.8c-2.9,0-5.1,1.5-5.1,3.5l0.1,0.9l0.1,1c0,2-1,3-2.8,3
		c-1.5,0-2.4-0.8-2.4-2.4c0-4.2,4.9-7.8,10.8-7.8c3.9,0,7.2,1.5,8.9,4c1.1,1.6,1.5,3.6,1.5,7.4V256c0,4.2,0.6,5.5,2.4,5.5
		c0.5,0,0.8-0.1,1.7-0.3V263"/>
	<path d="M285.3,247.8c0,9.4,2.3,14.3,6.9,14.3c4.4,0,6.7-4.6,6.7-13.7c0-9.7-2.3-14.5-6.9-14.5
		C287.5,233.8,285.3,238.4,285.3,247.8 M309.3,262c-4.6,0.5-5.8,0.8-9,1.8c-0.6-2.6-0.6-2.6-0.9-5c-1.9,3.6-4.3,5.1-7.9,5.1
		c-7.2,0-12.3-6.6-12.3-16c0-9.2,5-15.9,12-15.9c3.3,0,5,1,7.5,4.6v-10.7c0-3.5-0.5-3.9-4.6-4v-1.2c3.1-0.3,7.2-1,10.3-1.9v37.6
		c0,3.9,0.4,4.3,4.7,4.4V262"/>
	<path d="M328.8,261.5c-2.9,1.7-4.2,2.1-6.5,2.1c-3.2,0-5.5-1.3-6.6-3.7c-0.6-1.3-0.8-3.1-0.8-5.8v-1l0.3-18.4h-4v-2.1
		c4.2-0.1,6.9-3.4,8.1-9.7h1.9l-0.1,9.4h7.2v2.4h-7.3v19c0,3.1,0.1,4.4,0.6,5.3c0.6,1.3,1.6,1.9,3.1,1.9c1.3,0,1.8-0.2,4.2-1.5
		V261.5"/>
</g>
<g>
	<path d="M73.1,331.7H44.2v-1.8c4.7-0.3,5.3-0.8,5.3-4.4v-31.3c0-3.6-0.6-4-5.3-4.4V288c3.9,0.3,5.8,0.5,8.4,0.5s4.5-0.1,8.4-0.5
		v1.8c-4.7,0.3-5.3,0.8-5.3,4.4v31.5c0,3,0.8,3.7,4.2,3.7H64c5.1,0,7.3-2,9-8.5h1.6L73.1,331.7"/>
	<path d="M107.5,280.1c0,2.1-1.7,3.9-3.9,3.9c-2.1,0-3.9-1.8-3.9-3.9c0-2.2,1.7-3.9,3.9-3.9C105.8,276.2,107.5,277.9,107.5,280.1
		 M95.9,280.1c0,2.1-1.7,3.9-3.9,3.9c-2.1,0-3.9-1.8-3.9-3.9c0-2.2,1.7-3.9,3.9-3.9C94.2,276.2,95.9,277.9,95.9,280.1 M111.4,317.4
		c0,4.6-0.6,7-2.3,9.4c-2.6,3.6-6.8,5.5-12.3,5.5c-4.8,0-8.9-1.6-11.5-4.6c-2.2-2.5-3.1-5.1-3.1-9.9v-23.8c0-3.6-0.6-4-5.3-4.4V288
		c3.9,0.3,5.8,0.5,8.4,0.5c2.5,0,4.5-0.1,8.4-0.5v1.8c-4.7,0.3-5.3,0.8-5.3,4.4v24.6c0,3.9,0.5,5.9,2,7.6c1.7,2,4.5,3.1,8,3.1
		c4.2,0,7.8-1.6,9.4-4.4c1-1.8,1.5-4,1.5-7.4v-23.4c0-3.6-0.6-4-5.3-4.4V288c3.5,0.2,4.9,0.3,6.5,0.3c1.7,0,3.1-0.1,6.4-0.3v1.8
		c-4.7,0.3-5.3,0.8-5.3,4.4V317.4"/>
	<path d="M133.2,326.3c0,2.7,0.6,3.2,3.7,3.2h2.3c5.5,0,8.5-3.6,8.5-10c0-3.1-0.8-5.9-2.2-7.4c-1.3-1.5-3.3-2.1-6.6-2.1h-5.7V326.3
		 M137.4,307.9c3.3,0,5-0.5,6.4-2.1c1.4-1.5,2-3.7,2-6.7c0-6.1-2.2-8.7-7.4-8.7h-5.1v17.6H137.4 M139.2,288.2c4.2,0,6.8,0.7,9,2.3
		c2.5,1.9,4,4.9,4,8.3c0,4.7-2.4,7.9-7.1,9.6c2.1,0.4,3.2,0.8,4.5,1.6c3,1.9,4.6,5.2,4.6,9.1c0,4.4-2.2,8.5-5.7,10.5
		c-2.6,1.5-5.4,2.1-10,2.1h-16.6v-1.8c4.7-0.3,5.3-0.8,5.3-4.4v-31.1c0-3.6-0.6-4-5.3-4.4v-1.8H139.2"/>
	<path d="M190.7,331.7h-28.9v-1.8c4.7-0.3,5.3-0.8,5.3-4.4v-31.1c0-3.6-0.6-4-5.3-4.4v-1.8h28.5l1.3,10.2h-1.6
		c-1.6-6.4-3.1-8.1-7.8-8.1h-8.9V308h8.7c2.8,0,3.5-1.1,3.8-5.3h1.7v12.9h-1.7c-0.2-4.2-1.1-5.5-3.8-5.5h-8.7v15.8
		c0,2.9,0.8,3.7,4.2,3.7h4.2c5.1,0,7.2-2.1,9-8.7h1.6L190.7,331.7"/>
	<path d="M231.5,316.8c-0.3,9.7-5.9,15.7-14.5,15.7c-10.4,0-17.3-8.9-17.3-22.3c0-13.9,6.9-22.8,17.4-22.8c4.3,0,7.3,1.2,10.3,4.1
		l2.2-4h1.2v13.3h-1.6c-1.8-7.6-5.4-11.1-11.2-11.1c-4.2,0-7.3,2-9.2,5.9c-1.8,3.6-2.7,8.5-2.7,14.2c0,12.6,4.2,19.5,11.9,19.5
		c6.5,0,10.7-4.6,11.1-12.4H231.5"/>
	<path d="M264.2,293c0.7-0.8,1-1.2,1-1.8c0-1-0.6-1.2-4-1.4V288c2.9,0.2,4.5,0.3,6.7,0.3c2.2,0,3.8-0.1,6.7-0.3v1.8
		c-3.7,0.2-5.3,0.9-7.7,3.5L256.3,305l13.8,20.8c2.2,3.3,3.7,4.2,7.3,4.4v1.8c-3.8-0.4-5.8-0.5-8.7-0.5c-2.8,0-4.9,0.1-8.7,0.5v-1.8
		c3.6-0.3,4.4-0.6,4.4-1.8c0-0.5-0.1-0.8-1-2.2l-10.9-17.3l-2.9,3.1v13.7c0,3.5,0.5,4,5.1,4.4v1.8c-3.3-0.3-5.1-0.5-7.8-0.5
		s-4.7,0.1-8.5,0.5v-1.8c4.8-0.4,5.3-0.8,5.3-4.4v-31.6c0-3.6-0.6-4-5.3-4.4V288c3.9,0.3,5.8,0.5,8.5,0.5c2.6,0,4.5-0.1,8.1-0.5v1.8
		c-4.7,0.3-5.3,0.8-5.3,4.4v15L264.2,293"/>
</g>
<rect x="300.3" y="288.3" class="st0" width="26.8" height="18"/>
<rect x="300.3" y="310.8" class="st1" width="26.8" height="20.2"/>
<g>
	<path class="st2" d="M161.5,142.3l-8,10.9c0,0-5.5-1.5-7.7-1.4c-2.2,0.2-3.4,0.6-4.5,1.7c-1.1,1.1-0.7,3.7-0.7,3.7s1.7-2.2,4-1.9
		c2.4,0.2,4.7,1.4,4.7,1.4s-3.7,2.3-5.3,3.6c-1.3,1.1-2.1,2.7-2.2,3.9c-0.2,2.7,3.8,4.9,3.8,4.9s-1.1-4-0.1-5.2
		c1.2-1.6,4.3-1.9,4.3-1.9s-0.1,5.9,1.8,7.6c3.3,3,7.7,0.4,7.7,0.4s-3.8-0.2-4.7-2.4c-0.8-2.1-0.1-7.7-0.1-7.7s6.5-1.2,7.6-0.7
		c1.9,0.8,2.8,4.2,2.8,4.2s0.8-2,0.6-3.6c-0.2-1.7-0.3-4.6-8.5-4.7l8.9-10.1"/>
	<path class="st2" d="M206.6,142.3l8,10.9c0,0,5.5-1.5,7.7-1.4c2.2,0.2,3.4,0.6,4.5,1.7c1.1,1.1,0.7,3.7,0.7,3.7s-1.7-2.2-4-1.9
		c-2.4,0.2-4.7,1.4-4.7,1.4s3.7,2.3,5.3,3.6c1.3,1.1,2.1,2.7,2.2,3.9c0.2,2.7-3.8,4.9-3.8,4.9s1.1-4,0.1-5.2
		c-1.2-1.6-4.3-1.9-4.3-1.9s0.1,5.9-1.8,7.6c-3.3,3-7.7,0.4-7.7,0.4s3.8-0.2,4.7-2.4c0.8-2.1,0.1-7.7,0.1-7.7s-6.5-1.2-7.6-0.7
		c-1.9,0.8-2.8,4.2-2.8,4.2s-0.8-2-0.6-3.6c0.2-1.7,0.3-4.6,8.5-4.7l-8.9-10.1"/>
	<path class="st2" d="M160.8,45.9c0,0-3.1-0.3-3.9-0.3c-1,0.1-3.3,0.1-4.6,1.1c-1.3,0.9-1.6,3.3-1.5,4c0,0,0.8-0.9,4.1-0.7
		c2,0.1,5.7,0.8,7.3,1.3"/>
	<path class="st2" d="M164,55.2c0,0-2.3,0.7-3.8,1.1c-2.1,0.6-6,1.3-7.3,1.1c0,0,2.2,3.3,12.1,1"/>
	<path class="st2" d="M207.3,45.9c0,0,3.1-0.3,3.9-0.3c1,0.1,3.3,0.1,4.6,1.1c1.3,0.9,1.6,3.3,1.5,4c0,0-0.8-0.9-4.1-0.7
		c-2,0.1-5.7,0.8-7.3,1.3"/>
	<path class="st2" d="M204.1,55.2c0,0,2.3,0.7,3.8,1.1c2.1,0.6,6,1.3,7.3,1.1c0,0-2.2,3.3-12.1,1"/>
	<path class="st3" d="M235.8,77.4c24-1.4,25.9-5.3,26.6-7.1c-0.3-0.2-7.4,3.5-26.7,3.2c0-0.5,0.2-1.8,0.3-2.3
		c24.3,0.7,27.8-14.5,27.8-14.5c-6.8,3.5-15,4-22.9,3.5c-1.1,0-11.2-1.8-15.2-1.3c-2.3,0.1-4.6,1.7-5.5,3.9
		c-0.6,1.6-0.6,3.6,0.3,5.1c0.7,1.2,1.9,2.5,3.2,2.9l0.1,0.1c-1.1,4.3-2.4,8.5-6.3,11.6c-3.1,2.1-8.3,2.8-11.7,0.8
		c-2.8-1.8-3.6-4.7-4-7.6c-0.9-5.8-0.3-11.6,1.2-17c0.3-1.5,0.9-3,1.5-4.1c0.3-0.5,0.9-0.6,1.4-0.7c4.3-0.9,7.9,1.5,12.2,1.2
		c2.2-0.1,4.5-1.3,5.6-3.4c0-0.1-2.1,2.9-9.8,1.1c-2.9-0.6-6-0.9-8.7,0.4c0.1-0.5,3.6-5.9,2-7.9c-1.4-2.1-3.9-2.5-6.4-2.3
		c-3,0.3-5.4,2.4-8.6,2.4c-1.7,0-3.6-0.3-3.6-0.3c2,2.5,2.5,6.7,1.1,9.5c-0.8,2-2.2,4-3.6,5.7c0,0,2.6-0.2,3.4-0.8
		c-0.4,2.8-3,6.3-3.9,7.5c0.6,0.4,2.1,0.1,2.1,0.1c-1.9,4.3-3.2,8.8-3.8,13.5c-0.6-4.8-2-9.3-3.8-13.5c0,0,1.5,0.2,2.1-0.1
		c-0.9-1.2-3.6-4.7-3.9-7.5c0.8,0.6,3.4,0.8,3.4,0.8c-1.4-1.7-2.8-3.8-3.6-5.7c-1.4-2.9-0.9-7.1,1.1-9.5c0,0-1.9,0.3-3.6,0.3
		c-3.1,0-5.5-2.1-8.6-2.4c-2.5-0.2-4.9,0.2-6.4,2.3c-1.6,1.9,1.9,7.4,2,7.9c-2.6-1.3-5.8-1-8.7-0.4c-7.7,1.9-9.8-1.2-9.8-1.1
		c1.1,2.1,3.3,3.2,5.6,3.4c4.3,0.3,7.9-2.1,12.2-1.2c0.5,0.1,1.2,0.2,1.4,0.7c0.6,1.2,1.2,2.6,1.5,4.1c1.5,5.4,2.2,11.2,1.2,17
		c-0.4,2.9-1.2,5.8-4,7.6c-3.3,2-8.6,1.3-11.7-0.8c-4-3-5.2-7.2-6.3-11.6l0.1-0.1c1.3-0.4,2.5-1.6,3.2-2.9c0.8-1.5,0.8-3.5,0.3-5.1
		c-0.9-2.1-3.2-3.8-5.5-3.9c-4-0.5-14.1,1.3-15.2,1.3c-7.9,0.4-16.1-0.1-22.9-3.5c0,0,3.6,15.2,27.8,14.5c0.1,0.5,0.2,1.8,0.3,2.3
		c-19.3,0.3-26.4-3.4-26.7-3.2c0.8,1.9,2.6,5.7,26.6,7.1c-19,8.2-25.3,7.4-27.3,7c1.8,4,6,12.2,30.4,2c0.1,0.4,0.3,0.7,0.4,1.1
		c-15.1,11-25.4,12.4-25.7,12.7c1.4,0.6,8.6,3.2,26.6-8.4c0,0-12.7,17.6-28.6,19.6c2.1,2.6,5.1,3.9,8.4,3.9c7.9-0.3,14.3-4.2,20.3-9
		c2.2-2.1,4.7-4.3,6.5-6.7c0.3,0.4,0.5,0.8,0.8,1.2c-7.3,14.6-21,27.4-21,27.4c8.8,0,24-24.4,24-24.4c0.1,0.2-9.6,25.6-20.4,39.5
		c-1.9,2.2-4,3.5-5.9,4.9c11.5,1.9,16.5-0.3,27.5-21.5c2.3-5.1,5.9-11.4,8.9-18.9c0,0,0.9,0.4,1.2,0.6
		c-1.6,24.4-10.7,33.4-10.7,33.4s7.5,1.1,14-24.7c0,0,3.9,10.2,1.4,16.8c-2,4.2-6,7.6-9.8,10.6c2.1,1,4.4,0.8,6.3,0.3
		c2.1,0.5,3.8-1.4,3.8-1.4c0.5,1.1,1,2,1.6,2.8c0.7,3.2,2.7,5.3,3.6,5.9v-3.4c0.9,0.3,1.6,0.3,1.6,0.3c2-7.6,5.6-11.7,5.7-11.5
		c-1.3,9.8-6.2,37.2-16.8,49.1c0,0.1,13.5,2.7,20.5-26c0.2,6.3,0.5,12.6-1.2,18.4c-0.6,1.3-1.4,2.6-2.6,3.5c0,0,5.5,5.8,7.9,6.8
		l0.1,0l0.1,0c2.4-0.9,7.9-6.8,7.9-6.8c-1.2-0.8-2-2.2-2.6-3.5c-1.7-5.8-1.4-12.1-1.2-18.4c7,28.7,20.5,26,20.5,26
		c-10.6-11.8-15.4-39.3-16.8-49.1c0.1-0.2,3.7,3.8,5.7,11.5c0,0,0.7,0,1.6-0.3v3.4c0.8-0.6,2.9-2.7,3.6-5.9c0.6-0.7,1.2-1.6,1.6-2.8
		c0,0,1.8,1.8,3.8,1.4c1.9,0.5,4.2,0.7,6.3-0.3c-3.7-3-7.8-6.4-9.8-10.6c-2.5-6.6,1.4-16.8,1.4-16.8c6.5,25.8,14,24.7,14,24.7
		s-9.1-9-10.7-33.4c0.4-0.3,1.2-0.6,1.2-0.6c3,7.6,6.6,13.8,8.9,18.9c11,21.2,16,23.3,27.5,21.5c-2-1.4-4-2.7-5.9-4.9
		c-10.8-13.9-20.5-39.3-20.4-39.5c0,0,15.2,24.4,24,24.4c0,0-13.6-12.7-21-27.4c0.3-0.4,0.6-0.8,0.8-1.2c1.9,2.5,4.4,4.6,6.5,6.7
		c5.9,4.9,12.4,8.7,20.3,9c3.3,0,6.2-1.3,8.4-3.9c-15.9-2-28.6-19.6-28.6-19.6c18,11.6,25.3,9.1,26.6,8.4
		c-0.3-0.2-10.5-1.7-25.7-12.7c0.1-0.4,0.3-0.7,0.4-1.1c24.4,10.2,28.6,2,30.4-2C261.1,84.8,254.8,85.6,235.8,77.4z"/>
	<path class="st4" d="M166.5,47.8c0.8,0.1,2.7,0.4,3.8,0.4c1.1,0.2,2.2,0.4,3.3,0.6c-1.2,1.4-4.1,2.9-7.6,2.7
		c-0.2-0.2-1-2.7-1.1-3.8L166.5,47.8z"/>
	<path d="M168.4,50.1c0.9,0,1.7-0.8,1.7-1.7c0-0.9-0.8-1.7-1.7-1.7c-0.9,0-1.7,0.8-1.7,1.7C166.7,49.3,167.4,50.1,168.4,50.1z"/>
	<polyline class="st5" points="202.2,109.5 202.2,88.9 184.1,88.9 184,88.9 165.8,88.9 165.8,109.5 	"/>
	<g>
		<path class="st6" d="M184.1,132.1C184.1,132.1,184.1,132.1,184.1,132.1L184.1,132.1L184.1,132.1z"/>
		<path class="st6" d="M184,132.1L184,132.1C184,132.1,184,132.1,184,132.1L184,132.1z"/>
		<path class="st6" d="M165.8,109.3c0,7.8,1.7,12.5,6.5,16.4c3.7,2.6,7.7,4.5,11.7,6.4v0c0,0,0,0,0,0c0,0,0,0,0,0v0
			c4-1.9,8-3.8,11.7-6.4c4.8-3.9,6.5-8.6,6.5-16.4"/>
	</g>
	<path class="st4" d="M201.6,47.8c-0.8,0.1-2.7,0.4-3.8,0.4c-1.1,0.2-2.2,0.4-3.3,0.6c1.2,1.4,4.1,2.9,7.6,2.7
		c0.2-0.2,1-2.7,1.1-3.8L201.6,47.8z"/>
	<path d="M199.7,50.1c-0.9,0-1.7-0.8-1.7-1.7c0-0.9,0.8-1.7,1.7-1.7c0.9,0,1.7,0.8,1.7,1.7C201.4,49.3,200.7,50.1,199.7,50.1z"/>
</g>
</svg>
